<?xml version="1.0" standalone="no"?>
<!DOCTYPE svg PUBLIC "-//W3C//DTD SVG 20010904//EN"
 "http://www.w3.org/TR/2001/REC-SVG-20010904/DTD/svg10.dtd">
<svg version="1.0" xmlns="http://www.w3.org/2000/svg"
 width="499.000000pt" height="490.000000pt" viewBox="0 0 499.000000 490.000000"
 preserveAspectRatio="xMidYMid meet">

<g transform="translate(0.000000,490.000000) scale(0.100000,-0.100000)"
fill="#000000" stroke="none">
<path d="M4780 4859 c-30 -12 -3675 -3652 -3696 -3691 -39 -75 15 -182 96
-188 83 -7 -30 -115 1918 1833 1008 1007 1840 1844 1848 1859 33 63 9 140 -56
177 -41 23 -71 25 -110 10z"/>
<path d="M230 4778 c-76 -29 -160 -114 -188 -191 l-22 -58 0 -2124 0 -2124 21
-58 c26 -69 95 -145 161 -179 25 -13 77 -28 115 -34 46 -7 733 -10 2148 -8
l2080 3 66 31 c83 40 133 90 173 173 l31 66 3 1320 c2 1057 -1 1325 -11 1345
-12 25 -15 25 -132 25 -117 0 -120 0 -132 -25 -10 -20 -13 -296 -13 -1321 l0
-1296 -21 -19 c-21 -19 -70 -19 -2094 -19 -2024 0 -2073 0 -2094 19 l-21 19 0
2079 c0 2065 0 2078 20 2098 20 20 33 20 1060 20 1027 0 1040 0 1060 20 17 17
20 33 20 123 0 88 -3 106 -18 120 -17 16 -106 17 -1088 16 -1062 0 -1069 0
-1124 -21z"/>
<path d="M2519 4057 c-19 -13 -39 -38 -46 -57 -17 -49 -17 -931 0 -980 34 -97
182 -108 237 -17 19 31 20 53 20 507 0 454 -1 476 -20 507 -39 64 -128 83
-191 40z"/>
<path d="M1290 3532 c-36 -35 -40 -43 -40 -89 0 -39 6 -58 29 -89 16 -21 168
-177 337 -346 249 -247 316 -308 347 -316 60 -17 127 9 152 58 20 38 19 109
-1 140 -24 36 -602 617 -648 651 -30 23 -50 29 -87 29 -42 0 -53 -5 -89 -38z"/>
<path d="M3389 2580 c-152 -26 -243 -119 -242 -250 0 -143 68 -201 304 -260
132 -33 164 -48 174 -79 15 -50 -46 -91 -135 -91 -59 0 -82 10 -128 54 -31 30
-37 31 -125 34 -51 1 -98 -1 -106 -6 -21 -15 -4 -87 33 -135 68 -90 195 -133
361 -124 146 8 252 59 302 144 23 40 28 59 28 118 0 141 -59 192 -291 250 -76
19 -148 42 -160 50 -78 51 4 141 109 121 23 -4 50 -20 70 -41 l34 -35 102 0
c117 0 123 5 97 74 -51 132 -235 208 -427 176z"/>
<path d="M744 2324 c-29 -30 -34 -42 -34 -85 0 -28 7 -63 15 -79 31 -60 28
-60 553 -60 l479 0 34 23 c68 45 74 144 14 204 l-33 33 -497 0 -498 0 -33 -36z"/>
<path d="M2494 1700 c-159 -29 -251 -121 -276 -277 -17 -109 -5 -326 22 -397
30 -78 89 -136 172 -167 55 -21 80 -24 188 -24 105 1 134 5 181 23 112 44 190
140 193 235 l1 52 -109 0 -110 0 -25 -50 c-41 -78 -122 -106 -207 -70 -59 24
-74 72 -74 245 0 119 3 151 18 179 27 55 64 76 131 76 73 -1 103 -20 133 -85
l23 -50 108 0 c125 0 127 1 108 85 -22 98 -102 176 -216 211 -63 19 -194 26
-261 14z"/>
</g>
</svg>
