<svg width="90" height="89" viewBox="0 0 90 89" fill="none" xmlns="http://www.w3.org/2000/svg">
<g clip-path="url(#clip0_302_622)">
<path d="M86.2124 0.739512C85.6713 0.955945 19.9298 66.6073 19.551 67.3107C18.8476 68.6634 19.8216 70.5932 21.2825 70.7014C22.7795 70.8277 20.7414 72.7756 55.8757 37.6413C74.056 19.479 89.0621 4.3828 89.2064 4.11226C89.8015 2.97599 89.3687 1.58721 88.1963 0.919873C87.4569 0.505043 86.9158 0.468971 86.2124 0.739512Z" fill="white"/>
<path d="M4.14842 2.20043C2.77767 2.72347 1.26264 4.25654 0.757633 5.64532L0.36084 6.69141V45V83.3086L0.739597 84.3547C1.20854 85.5992 2.45302 86.97 3.64341 87.5832C4.09431 87.8177 5.03218 88.0882 5.71755 88.1964C6.54721 88.3227 18.938 88.3768 44.459 88.3407L81.9741 88.2866L83.1645 87.7275C84.6614 87.006 85.5632 86.1042 86.2847 84.6072L86.8438 83.4169L86.8979 59.6092C86.934 40.5451 86.8799 35.7115 86.6995 35.3507C86.4831 34.8998 86.429 34.8998 84.3188 34.8998C82.2085 34.8998 82.1544 34.8998 81.938 35.3507C81.7576 35.7115 81.7035 40.6894 81.7035 59.1764V82.5511L81.3248 82.8938C80.946 83.2365 80.0622 83.2365 43.5572 83.2365C7.05222 83.2365 6.16846 83.2365 5.7897 82.8938L5.41094 82.5511V45.0541C5.41094 7.80965 5.41094 7.57518 5.77166 7.21445C6.13238 6.85373 6.36685 6.85373 24.8899 6.85373C43.4129 6.85373 43.6474 6.85373 44.0081 6.49301C44.3147 6.1864 44.3689 5.89782 44.3689 4.27457C44.3689 2.6874 44.3147 2.36275 44.0442 2.11025C43.7376 1.82167 42.1324 1.80363 24.421 1.82167C5.26665 1.82167 5.1404 1.82167 4.14842 2.20043Z" fill="white"/>
<path d="M45.4332 15.2044C45.0905 15.4389 44.7297 15.8898 44.6035 16.2325C44.2969 17.1163 44.2969 33.0241 44.6035 33.9078C45.2167 35.6573 47.8861 35.8557 48.878 34.2144C49.2207 33.6553 49.2388 33.2585 49.2388 25.0702C49.2388 16.8818 49.2207 16.485 48.878 15.9259C48.1746 14.7716 46.5694 14.4289 45.4332 15.2044Z" fill="white"/>
<path d="M23.2669 24.6734C22.6176 25.3047 22.5454 25.4489 22.5454 26.2786C22.5454 26.982 22.6536 27.3247 23.0685 27.8838C23.357 28.2626 26.0985 31.0762 29.1466 34.1243C33.6376 38.5792 34.846 39.6794 35.4051 39.8237C36.4873 40.1303 37.6957 39.6614 38.1466 38.7776C38.5073 38.0922 38.4893 36.8117 38.1286 36.2525C37.6957 35.6032 27.2709 25.1243 26.4412 24.5111C25.9001 24.0962 25.5394 23.988 24.8721 23.988C24.1145 23.988 23.9162 24.0782 23.2669 24.6734Z" fill="white"/>
<path d="M61.1246 41.8437C58.3831 42.3127 56.7418 43.99 56.7598 46.3528C56.7598 48.9319 57.9863 49.978 62.2428 51.0421C64.6236 51.6373 65.2007 51.9079 65.3811 52.467C65.6516 53.3688 64.5514 54.1083 62.9462 54.1083C61.8821 54.1083 61.4672 53.9279 60.6376 53.1343C60.0785 52.5932 59.9702 52.5752 58.3831 52.5211C57.4632 52.5031 56.6155 52.5391 56.4713 52.6293C56.0925 52.8998 56.3991 54.1984 57.0664 55.0642C58.2929 56.6874 60.5835 57.463 63.5775 57.3006C66.2107 57.1564 68.1226 56.2365 69.0244 54.7035C69.4392 53.982 69.5294 53.6393 69.5294 52.5752C69.5294 50.0321 68.4652 49.1123 64.2809 48.0662C62.9101 47.7235 61.6115 47.3087 61.3951 47.1644C59.9883 46.2445 61.4672 44.6213 63.361 44.982C63.7759 45.0542 64.2628 45.3427 64.6236 45.7215L65.2368 46.3528H67.0765C69.1867 46.3528 69.2949 46.2626 68.826 45.0181C67.9061 42.6373 64.5875 41.2666 61.1246 41.8437Z" fill="white"/>
<path d="M13.4189 46.461C12.8958 47.002 12.8057 47.2185 12.8057 47.994C12.8057 48.499 12.9319 49.1303 13.0762 49.4189C13.6353 50.501 13.5812 50.501 23.0502 50.501H31.6894L32.3027 50.0862C33.5291 49.2746 33.6373 47.489 32.5552 46.4068L31.96 45.8117H22.996H14.0141L13.4189 46.461Z" fill="white"/>
<path d="M44.9822 57.7154C42.1145 58.2385 40.4552 59.8978 40.0043 62.7114C39.6976 64.6774 39.9141 68.5912 40.4011 69.8718C40.9421 71.2786 42.0063 72.3247 43.5033 72.8838C44.4952 73.2625 44.9461 73.3167 46.894 73.3167C48.7878 73.2986 49.3109 73.2265 50.1586 72.9018C52.1786 72.1082 53.5854 70.3768 53.6395 68.6633L53.6576 67.7255H51.6916H49.7077L49.2568 68.6273C48.5173 70.0341 47.0564 70.5391 45.5233 69.8898C44.4592 69.4569 44.1886 68.5912 44.1886 65.471C44.1886 63.3247 44.2427 62.7475 44.5133 62.2425C45.0002 61.2505 45.6676 60.8718 46.876 60.8718C48.1926 60.8898 48.7337 61.2325 49.2748 62.4048L49.6896 63.3066H51.6375C53.892 63.3066 53.9281 63.2886 53.5854 61.7736C53.1886 60.006 51.7457 58.5992 49.6896 57.968C48.5534 57.6253 46.1906 57.499 44.9822 57.7154Z" fill="white"/>
</g>
<defs>
<clipPath id="clip0_302_622">
<rect width="90" height="88.3768" fill="white"/>
</clipPath>
</defs>
</svg>
